<svg width="1071" height="60" viewBox="0 0 1071 60" fill="none" xmlns="http://www.w3.org/2000/svg">
<path d="M510.242 31.2061H61.4944V34.4124H510.419C510.253 33.3655 510.192 32.2776 510.242 31.2061Z" fill="#D0A854"/>
<path d="M543.526 35.9584C543.526 41.1495 541.386 45.3574 538.748 45.3574C536.108 45.3574 533.968 41.1495 533.968 35.9584C533.968 30.7673 536.108 26.5593 538.748 26.5593C541.386 26.5593 543.526 30.7673 543.526 35.9584Z" fill="#D0A854"/>
<path d="M22.1418 3.43323e-05C22.0053 0.989407 19.5727 7.98686 17.4425 11.8992C12.3784 20.4012 0.0223849 28.1766 2.41779e-05 28.581C-0.0199827 28.9484 12.382 36.6581 17.4425 45.154C19.5727 49.0746 22.0324 56.0576 22.1418 57.0593C20.26 39.8479 37.9461 28.7698 37.9461 28.4106C37.9461 28.0535 20.0175 15.3702 22.1418 3.43323e-05Z" fill="#D0A854"/>
<path d="M53.6031 31.2067C53.6031 36.3978 51.4635 40.6057 48.825 40.6057C46.1852 40.6057 44.0457 36.3978 44.0457 31.2067C44.0457 26.0155 46.1852 21.8076 48.825 21.8076C51.4635 21.8076 53.6031 26.0155 53.6031 31.2067Z" fill="#D0A854"/>
<path d="M560.144 31.2061H1008.89V34.4124H559.967C560.133 33.3655 560.194 32.2776 560.144 31.2061Z" fill="#D0A854"/>
<path d="M1048.25 2.24149C1048.38 3.23086 1050.82 10.2283 1052.95 14.1406C1058.01 22.6427 1070.37 30.4181 1070.39 30.8225C1070.41 31.1899 1058.01 38.8996 1052.95 47.3955C1050.82 51.316 1048.36 58.2991 1048.25 59.3008C1050.13 42.0894 1032.44 31.0113 1032.44 30.6521C1032.44 30.2949 1050.37 17.6117 1048.25 2.24149Z" fill="#D0A854"/>
<path d="M1016.79 31.2067C1016.79 36.3978 1018.93 40.6057 1021.56 40.6057C1024.2 40.6057 1026.34 36.3978 1026.34 31.2067C1026.34 26.0155 1024.2 21.8076 1021.56 21.8076C1018.93 21.8076 1016.79 26.0155 1016.79 31.2067Z" fill="#D0A854"/>
</svg>
