<svg width="184" height="77" viewBox="0 0 184 77" fill="none" xmlns="http://www.w3.org/2000/svg">
<path d="M15.4008 56.023L14.0792 52.5033L12.6997 56.023H15.4008ZM17.127 58.2165C17.3488 58.7045 17.7545 58.907 18.0905 58.907H18.182V59.0167H15.7128V58.908H15.8092C16.0921 58.908 16.386 58.6585 16.2258 58.2195L15.5244 56.3518H12.5707L11.8361 58.2263C11.6813 58.6611 11.9736 58.908 12.2553 58.908H12.3517V59.0167H10.1445V58.907H10.2431C10.5766 58.907 10.9822 58.7049 11.2038 58.2173L13.6907 52.3164C13.6907 52.3164 14.0969 51.428 14.0969 51.1869H14.1955L17.127 58.2165Z" fill="#0D2435"/>
<path d="M25.9977 55.4485C25.6431 55.4485 25.4436 55.6275 25.4488 55.9447V57.7582C24.9487 58.4228 23.9241 59.1708 22.2774 59.1708C19.9454 59.1596 18.3359 57.5656 18.3359 55.1791C18.3359 52.7841 19.9454 51.1873 22.2742 51.1873C23.4803 51.1873 24.2882 51.5133 24.9322 51.9277L25.1536 53.4768H25.0624C24.7291 52.2218 23.7255 51.5159 22.2774 51.5159C20.4188 51.5159 19.1585 52.9811 19.1585 55.1795C19.1585 57.3676 20.4188 58.8331 22.2774 58.8428C23.2306 58.8428 24.1195 58.4763 24.7519 57.8918V55.9487C24.7519 55.6285 24.5418 55.4485 24.1878 55.4485H24.0149V55.3387H26.1627V55.4485H25.9977Z" fill="#0D2435"/>
<path d="M34.8879 51.3404L34.8863 51.4501H34.6838C34.3169 51.4501 34.0186 51.7415 34.0072 52.1056V57.7714C34.0072 58.4778 34.107 59.1704 34.107 59.1704H34.0076L28.0269 52.7913V58.2514C28.0384 58.6157 28.3367 58.9073 28.7036 58.9073H28.906L28.9077 59.0172H26.6489L26.6505 58.9073H26.853C27.2227 58.9073 27.5228 58.6113 27.5298 58.2434V52.5461C27.5298 51.7974 27.4288 51.1762 27.4288 51.1762H27.5371L33.5088 57.5531V52.1146C33.502 51.7465 33.2019 51.4501 32.8318 51.4501H32.6295L32.6279 51.3402L34.8879 51.3404Z" fill="#0D2435"/>
<path d="M40.3598 56.023L39.0381 52.5033L37.6587 56.023H40.3598ZM42.086 58.2165C42.3078 58.7045 42.7135 58.907 43.0494 58.907H43.141V59.0167H40.6718V58.908H40.7682C41.0511 58.908 41.345 58.6585 41.1848 58.2195L40.4834 56.3518H37.5297L36.7951 58.2263C36.6403 58.6611 36.9326 58.908 37.2143 58.908H37.3107V59.0167H35.1035V58.907H35.2021C35.5356 58.907 35.9412 58.7049 36.1627 58.2173L38.6497 52.3164C38.6497 52.3164 39.0558 51.428 39.0558 51.1869H39.1545L42.086 58.2165Z" fill="#0D2435"/>
<path d="M48.8658 57.2456L48.2266 59.0168H43.6806L43.6822 58.9074H43.8211C44.2049 58.9074 44.5162 58.5996 44.5233 58.2178V52.1402C44.516 51.7582 44.2047 51.4507 43.8209 51.4507H43.682L43.6802 51.3408H46.0794L46.0776 51.4507H45.9389C45.5551 51.4507 45.2438 51.7582 45.2365 52.1402V58.6813H46.8092C47.9712 58.6813 48.4174 58.0802 48.7559 57.2452L48.8658 57.2456Z" fill="#0D2435"/>
<path d="M51.2354 58.6841H53.3907C55.2704 58.6841 56.5065 57.2835 56.5065 55.1828C56.5065 53.076 55.2593 51.6712 53.3907 51.6712H51.2354V58.6841ZM53.3907 51.3417C55.7329 51.3417 57.3291 52.8779 57.3291 55.1828C57.3291 57.4832 55.7329 59.0172 53.3907 59.0172H49.6782L49.68 58.9077H49.8187C50.2021 58.9077 50.5132 58.6005 50.5213 58.2194V52.0769C50.5213 51.7243 50.1854 51.4494 49.8227 51.4494H49.6841L49.6822 51.3409L53.3907 51.3417Z" fill="#0D2435"/>
<path d="M65.6806 55.1787C65.6806 52.9806 64.4403 51.5152 62.5796 51.5152C60.7192 51.5152 59.4788 52.9806 59.4788 55.1787C59.4788 57.3767 60.7192 58.842 62.5796 58.842C64.4403 58.842 65.6806 57.3767 65.6806 55.1787ZM66.5213 55.1785C66.5213 57.5735 64.9118 59.1703 62.5796 59.1703C60.2477 59.1703 58.6382 57.5735 58.6382 55.1785C58.6382 52.7835 60.2477 51.1869 62.5796 51.1869C64.9118 51.1869 66.5213 52.7835 66.5213 55.1785Z" fill="#0D2435"/>
<path d="M74.9482 56.023L73.6265 52.5033L72.2471 56.023H74.9482ZM76.6744 58.2165C76.8962 58.7045 77.3019 58.907 77.6378 58.907H77.7294V59.0167H75.2601V58.908H75.3565C75.6395 58.908 75.9333 58.6585 75.7731 58.2195L75.0718 56.3518H72.1181L71.3835 58.2263C71.2287 58.6611 71.5209 58.908 71.8027 58.908H71.8991V59.0167H69.6919V58.907H69.7905C70.124 58.907 70.5295 58.7049 70.7511 58.2173L73.2381 52.3164C73.2381 52.3164 73.6442 51.428 73.6442 51.1869H73.7428L76.6744 58.2165Z" fill="#0D2435"/>
<path d="M83.4537 57.2456L82.8145 59.0168H78.2685L78.2701 58.9074H78.4089C78.7927 58.9074 79.1041 58.5996 79.1111 58.2178V52.1402C79.1039 51.7582 78.7925 51.4507 78.4087 51.4507H78.2699L78.2681 51.3408H80.6673L80.6655 51.4507H80.5268C80.143 51.4507 79.8316 51.7582 79.8244 52.1402V58.6813H81.397C82.5591 58.6813 83.0053 58.0802 83.3438 57.2452L83.4537 57.2456Z" fill="#0D2435"/>
<path d="M90.8148 51.3389V51.4498H90.7184C90.3843 51.4498 89.9803 51.6466 89.7579 52.129L87.1208 58.0408C87.1208 58.0408 86.7149 58.9294 86.7149 59.1705H86.6161L83.5344 52.1373C83.3126 51.6488 82.9069 51.4498 82.5668 51.4498H82.479V51.3389H84.9485V51.4486H84.8521C84.5691 51.4486 84.2781 51.6945 84.4377 52.1326L86.7354 57.8778L89.1208 52.1336C89.2808 51.6945 88.9871 51.4486 88.704 51.4486H88.6078V51.3389H90.8148Z" fill="#0D2435"/>
<path d="M95.9088 59.0168H91.3628L91.3644 58.9072H91.5031C91.8871 58.9072 92.1984 58.5996 92.2057 58.2176V52.0776C92.1682 51.7244 91.87 51.4493 91.5071 51.4493H91.3684L91.3664 51.3404H94.5713C95.0436 51.3358 95.6752 51.2267 95.8784 51.1408V51.462V51.6449V52.5256L95.7676 52.524V52.3284C95.7676 51.9806 95.4963 51.6966 95.1537 51.6757H92.9181V55.0661H94.7713C95.0652 55.0607 95.3018 54.8212 95.3018 54.5257V54.3643L95.4089 54.3629V56.0984L95.3018 56.097V55.9356C95.3018 55.6441 95.0712 55.4069 94.7828 55.3956H92.9181V58.6813H94.4908C95.6526 58.6813 96.099 58.08 96.4373 57.2452H96.547L95.9088 59.0168Z" fill="#0D2435"/>
<path d="M101.065 55.7829C101.503 56.1876 101.616 56.6767 101.616 57.1197C101.616 58.3329 100.823 59.1705 99.5622 59.1705C99.0248 59.1705 98.1367 59.0169 97.7056 58.5712C97.6239 58.2326 97.6655 57.5343 97.8324 57.0424H97.9288C97.8187 58.1725 98.5339 58.8956 99.5101 58.8414C100.31 58.797 100.979 58.2483 100.979 57.3718C100.979 56.9434 100.823 56.6042 100.549 56.3501L98.4486 54.399C98.005 53.9943 97.8543 53.4646 97.8543 53.0401C97.8543 52.116 98.5315 51.1869 99.7816 51.1869C100.069 51.1869 100.431 51.2359 100.722 51.2995H101.156V51.4297V52.6451H101.051C101.054 51.9435 100.5 51.5158 99.8172 51.5158C99.0091 51.5158 98.4683 52.1087 98.4683 52.7769C98.4683 53.0629 98.5643 53.468 98.9099 53.788L101.065 55.7829Z" fill="#0D2435"/>
<path d="M107.197 58.6841H109.353C111.232 58.6841 112.468 57.2835 112.468 55.1828C112.468 53.076 111.221 51.6712 109.353 51.6712H107.197V58.6841ZM109.353 51.3417C111.695 51.3417 113.291 52.8779 113.291 55.1828C113.291 57.4832 111.695 59.0172 109.353 59.0172H105.64L105.642 58.9077H105.781C106.164 58.9077 106.475 58.6005 106.483 58.2194V52.0769C106.483 51.7243 106.148 51.4494 105.785 51.4494H105.646L105.644 51.3409L109.353 51.3417Z" fill="#0D2435"/>
<path d="M118.818 59.0168H114.271L114.273 58.9072H114.412C114.796 58.9072 115.107 58.5996 115.114 58.2176V52.0776C115.077 51.7244 114.779 51.4493 114.416 51.4493H114.277L114.275 51.3404H117.48C117.952 51.3358 118.584 51.2267 118.787 51.1408V51.462V51.6449V52.5256L118.676 52.524V52.3284C118.676 51.9806 118.405 51.6966 118.062 51.6757H115.827V55.0661H117.68C117.974 55.0607 118.211 54.8212 118.211 54.5257V54.3643L118.318 54.3629V56.0984L118.211 56.097V55.9356C118.211 55.6441 117.98 55.4069 117.691 55.3956H115.827V58.6813H117.399C118.561 58.6813 119.008 58.08 119.346 57.2452H119.456L118.818 59.0168Z" fill="#0D2435"/>
<path d="M126.716 55.7829C127.154 56.1876 127.267 56.6767 127.267 57.1197C127.267 58.3329 126.474 59.1705 125.213 59.1705C124.676 59.1705 123.788 59.0169 123.356 58.5712C123.275 58.2326 123.316 57.5343 123.483 57.0424H123.58C123.47 58.1725 124.185 58.8956 125.161 58.8414C125.961 58.797 126.63 58.2483 126.63 57.3718C126.63 56.9434 126.474 56.6042 126.2 56.3501L124.099 54.399C123.656 53.9943 123.505 53.4646 123.505 53.0401C123.505 52.116 124.182 51.1869 125.432 51.1869C125.72 51.1869 126.081 51.2359 126.373 51.2995H126.807V51.4297V52.6451H126.702C126.704 51.9435 126.151 51.5158 125.468 51.5158C124.66 51.5158 124.119 52.1087 124.119 52.7769C124.119 53.0629 124.215 53.468 124.561 53.788L126.716 55.7829Z" fill="#0D2435"/>
<path d="M130.949 59.0167H128.549L128.551 58.907H128.69C129.074 58.907 129.385 58.5995 129.392 58.2175V52.1342C129.383 51.7545 129.072 51.4491 128.69 51.4491H128.551L128.55 51.3395H130.949L130.947 51.4491H130.808C130.426 51.4491 130.117 51.753 130.106 52.132V58.2175C130.113 58.5995 130.424 58.907 130.808 58.907H130.947L130.949 59.0167Z" fill="#0D2435"/>
<path d="M135.978 58.8421C137.839 58.8421 139.079 57.3767 139.079 55.1787C139.079 52.9806 137.839 51.5152 135.978 51.5152C134.107 51.5152 132.859 52.9806 132.859 55.1787C132.859 57.3767 134.118 58.8421 135.978 58.8421ZM145.939 59.9927C145.682 60.6836 143.594 62.504 140.461 61.1441C139.121 60.5628 137.328 59.4334 135.854 59.1703C133.589 59.1154 132.037 57.5307 132.037 55.1787C132.037 52.7838 133.646 51.187 135.978 51.187C138.299 51.187 139.901 52.7838 139.901 55.1787C139.901 57.2344 138.705 58.7018 136.912 59.0715C137.787 59.3346 139.061 59.8391 140.546 60.4753C142.194 61.166 144.543 61.2099 145.897 59.9379L145.939 59.9927Z" fill="#0D2435"/>
<path d="M148.454 51.3404V51.4501H148.276C147.967 51.4501 147.716 51.6658 147.697 51.9679V56.3044C147.697 58.024 146.514 59.1704 144.741 59.1704C142.916 59.1704 141.699 58.0315 141.699 56.3234V51.9931C141.694 51.6777 141.436 51.4501 141.12 51.4501H140.941V51.3404H143.168V51.4501H142.99C142.678 51.4501 142.425 51.6698 142.412 51.9768V56.1624C142.412 57.76 143.343 58.825 144.74 58.825C146.205 58.825 147.182 57.8165 147.184 56.304V51.9782C147.17 51.6707 146.917 51.4503 146.605 51.4503H146.426V51.3406L148.454 51.3404Z" fill="#0D2435"/>
<path d="M154.064 59.0168H149.518L149.52 58.9072H149.659C150.043 58.9072 150.354 58.5996 150.361 58.2176V52.0776C150.324 51.7244 150.025 51.4493 149.663 51.4493H149.524L149.522 51.3404H152.727C153.199 51.3358 153.83 51.2267 154.034 51.1408V51.462V51.6449V52.5256L153.923 52.524V52.3284C153.923 51.9806 153.652 51.6966 153.309 51.6757H151.074V55.0661H152.927C153.221 55.0607 153.457 54.8212 153.457 54.5257V54.3643L153.564 54.3629V56.0984L153.457 56.097V55.9356C153.457 55.6441 153.227 55.4069 152.938 55.3956H151.074V58.6813H152.646C153.808 58.6813 154.255 58.08 154.593 57.2452H154.703L154.064 59.0168Z" fill="#0D2435"/>
<path d="M158.134 59.0167H155.735L155.737 58.907H155.876C156.259 58.907 156.571 58.5995 156.578 58.2175V52.1342C156.569 51.7545 156.258 51.4491 155.876 51.4491H155.737L155.735 51.3395H158.134L158.133 51.4491H157.994C157.612 51.4491 157.302 51.753 157.292 52.132V58.2175C157.299 58.5995 157.61 58.907 157.994 58.907H158.133L158.134 59.0167Z" fill="#0D2435"/>
<path d="M162.4 51.3402C163.729 51.3402 164.543 52.1235 164.543 53.4013C164.543 54.463 163.735 55.492 162.68 55.492C162.916 55.6007 163.253 55.9638 163.465 56.2638C163.465 56.2638 164.411 57.6137 164.835 58.0774C165.276 58.5592 165.682 58.9015 166.326 58.9066V59.0165H165.725C164.704 59.0165 164.156 58.4668 163.811 58.055C163.687 57.9063 162.451 56.1083 162.367 56.0026C162.08 55.6425 161.76 55.2626 161.36 55.2626V55.1613C161.36 55.1613 161.609 55.1664 161.939 55.1575C162.508 55.1422 163.34 55.0066 163.651 54.019C163.699 53.8654 163.727 53.6028 163.721 53.3623C163.694 52.3705 163.177 51.7353 162.36 51.6904C161.801 51.66 161.138 51.687 160.995 51.682V58.2179C161.002 58.5998 161.314 58.9074 161.697 58.9074H161.836L161.838 59.0171H159.442L159.444 58.9074H159.583C159.965 58.9074 160.275 58.6027 160.285 58.2231V52.139C160.278 51.7572 159.966 51.4495 159.582 51.4495H159.444L159.442 51.3406L162.4 51.3402Z" fill="#0D2435"/>
<path d="M171.026 56.023L169.704 52.5033L168.325 56.023H171.026ZM172.752 58.2165C172.974 58.7045 173.379 58.907 173.715 58.907H173.807V59.0167H171.338V58.908H171.434C171.717 58.908 172.011 58.6585 171.851 58.2195L171.149 56.3518H168.196L167.461 58.2263C167.306 58.6611 167.599 58.908 167.88 58.908H167.977V59.0167H165.77V58.907H165.868C166.202 58.907 166.607 58.7049 166.829 58.2173L169.316 52.3164C169.316 52.3164 169.722 51.428 169.722 51.1869H169.82L172.752 58.2165Z" fill="#0D2435"/>
<path d="M57.3023 73.9041H59.5633L58.7031 71.6257C58.6311 71.4472 58.5445 71.1992 58.4437 70.8822C58.3658 71.159 58.2809 71.4095 58.1887 71.6345L57.3023 73.9041ZM59.7104 74.3018H57.1423L56.2604 76.5328H55.772L58.3139 70.1863H58.595L61.0852 76.5328H60.5879L59.7104 74.3018Z" fill="#0D2435"/>
<path d="M69.8405 73.3292C69.8405 72.4241 69.6107 71.7433 69.151 71.2864C68.6913 70.8297 68.0161 70.6013 67.1255 70.6013H65.9624V76.1436H67.0088C68.8966 76.1436 69.8405 75.2055 69.8405 73.3292ZM70.3203 73.3119C70.3203 74.3725 70.0422 75.1745 69.4861 75.7179C68.9296 76.2611 68.1127 76.5326 67.0348 76.5326H65.5215V70.2121H67.2292C68.2379 70.2121 69.0053 70.4759 69.5314 71.0032C70.0573 71.5307 70.3203 72.3001 70.3203 73.3119Z" fill="#0D2435"/>
<path d="M79.0506 70.2122H79.5306L77.1658 76.5327H76.7766L74.4204 70.2122H74.8916L76.4825 74.5137C76.7246 75.1622 76.8874 75.6492 76.9712 75.9751C77.0287 75.7589 77.1424 75.4232 77.3127 74.9678L79.0506 70.2122Z" fill="#0D2435"/>
<path d="M84.1094 73.3637C84.1094 74.2688 84.3111 74.9686 84.7146 75.4627C85.1181 75.9572 85.6973 76.2043 86.4527 76.2043C87.2134 76.2043 87.7949 75.9592 88.197 75.4693C88.5991 74.9792 88.8001 74.2774 88.8001 73.3637C88.8001 72.453 88.5991 71.7549 88.197 71.2692C87.7949 70.7836 87.2162 70.5407 86.4613 70.5407C85.709 70.5407 85.129 70.7858 84.721 71.2757C84.3133 71.7657 84.1094 72.4617 84.1094 73.3637ZM89.28 73.3637C89.28 74.3668 89.0292 75.16 88.5278 75.7436C88.0263 76.3273 87.3346 76.6193 86.4527 76.6193C85.5736 76.6193 84.8832 76.3273 84.3817 75.7436C83.8802 75.16 83.6294 74.364 83.6294 73.3553C83.6294 72.3494 83.8824 71.5574 84.3881 70.9794C84.8941 70.4016 85.585 70.1126 86.4613 70.1126C87.3432 70.1126 88.0334 70.403 88.5321 70.9838C89.0306 71.5645 89.28 72.358 89.28 73.3637Z" fill="#0D2435"/>
<path d="M96.7603 73.3464H99.0905V76.2301C98.4794 76.4895 97.7919 76.6193 97.0282 76.6193C96.0309 76.6193 95.2665 76.3374 94.7348 75.774C94.2031 75.2105 93.937 74.4129 93.937 73.3811C93.937 72.7382 94.0688 72.1683 94.3327 71.6712C94.5965 71.1741 94.9739 70.7901 95.4654 70.5192C95.9566 70.2483 96.5208 70.1126 97.158 70.1126C97.8467 70.1126 98.4649 70.2396 99.0126 70.4932L98.8353 70.8909C98.2878 70.6373 97.7201 70.5105 97.132 70.5105C96.299 70.5105 95.6383 70.7675 95.1496 71.2821C94.6613 71.7965 94.417 72.4905 94.417 73.3638C94.417 74.3149 94.6491 75.0304 95.1132 75.5102C95.5771 75.9902 96.2587 76.2301 97.158 76.2301C97.7402 76.2301 98.2343 76.148 98.6408 75.9835V73.7614H96.7603V73.3464Z" fill="#0D2435"/>
<path d="M104.854 73.9041H107.115L106.255 71.6257C106.183 71.4472 106.096 71.1992 105.995 70.8822C105.918 71.159 105.833 71.4095 105.74 71.6345L104.854 73.9041ZM107.262 74.3018H104.694L103.812 76.5328H103.324L105.866 70.1863H106.147L108.637 76.5328H108.14L107.262 74.3018Z" fill="#0D2435"/>
<path d="M117.392 73.3292C117.392 72.4241 117.162 71.7433 116.703 71.2864C116.243 70.8297 115.568 70.6013 114.677 70.6013H113.514V76.1436H114.561C116.448 76.1436 117.392 75.2055 117.392 73.3292ZM117.872 73.3119C117.872 74.3725 117.594 75.1745 117.038 75.7179C116.481 76.2611 115.664 76.5326 114.586 76.5326H113.073V70.2121H114.781C115.79 70.2121 116.557 70.4759 117.083 71.0032C117.609 71.5307 117.872 72.3001 117.872 73.3119Z" fill="#0D2435"/>
<path d="M123.009 73.3637C123.009 74.2688 123.211 74.9686 123.614 75.4627C124.018 75.9572 124.597 76.2043 125.352 76.2043C126.113 76.2043 126.695 75.9592 127.097 75.4693C127.499 74.9792 127.7 74.2774 127.7 73.3637C127.7 72.453 127.499 71.7549 127.097 71.2692C126.695 70.7836 126.116 70.5407 125.361 70.5407C124.609 70.5407 124.029 70.7858 123.621 71.2757C123.213 71.7657 123.009 72.4617 123.009 73.3637ZM128.18 73.3637C128.18 74.3668 127.929 75.16 127.428 75.7436C126.926 76.3273 126.234 76.6193 125.352 76.6193C124.473 76.6193 123.783 76.3273 123.282 75.7436C122.78 75.16 122.529 74.364 122.529 73.3553C122.529 72.3494 122.782 71.5574 123.288 70.9794C123.794 70.4016 124.485 70.1126 125.361 70.1126C126.243 70.1126 126.933 70.403 127.432 70.9838C127.93 71.5645 128.18 72.358 128.18 73.3637Z" fill="#0D2435"/>
<path d="M10.9678 65.2965V65.6109H87.7389C87.7106 65.5083 87.6999 65.4016 87.7085 65.2965H10.9678Z" fill="url(#paint0_linear_27_281)"/>
<path d="M91.7661 65.7625C91.7661 66.2714 92.1318 66.684 92.5832 66.684C93.0347 66.684 93.4005 66.2714 93.4005 65.7625C93.4005 65.2533 93.0347 64.8407 92.5832 64.8407C92.1318 64.8407 91.7661 65.2533 91.7661 65.7625Z" fill="url(#paint1_linear_27_281)"/>
<path d="M3.43433 63.4033C2.56851 64.2371 0.455489 64.9994 0.451665 65.0389C0.448042 65.0749 2.56911 65.831 3.43433 66.6641C3.79861 67.0485 4.21924 67.7331 4.23816 67.8314C3.91634 66.1438 6.94067 65.0576 6.94067 65.0224C6.94067 64.9872 3.87468 63.7438 4.23816 62.2366C4.21481 62.3338 3.79861 63.0197 3.43433 63.4033Z" fill="url(#paint2_linear_27_281)"/>
<path d="M7.98389 65.2965C7.98389 65.8055 8.34978 66.2181 8.8012 66.2181C9.25243 66.2181 9.61831 65.8055 9.61831 65.2965C9.61831 64.7874 9.25243 64.3748 8.8012 64.3748C8.34978 64.3748 7.98389 64.7874 7.98389 65.2965Z" fill="url(#paint3_linear_27_281)"/>
<path d="M96.2426 65.2965C96.2513 65.4016 96.2408 65.5083 96.2124 65.6109H172.984V65.2965H96.2426Z" fill="url(#paint4_linear_27_281)"/>
<path d="M177.011 65.2422C177.011 65.2774 180.035 66.3636 179.713 68.051C179.732 67.953 180.153 67.2681 180.517 66.8839C181.382 66.0509 183.503 65.2947 183.5 65.2587C183.496 65.2192 181.383 64.4569 180.517 63.6231C180.153 63.2397 179.737 62.5534 179.713 62.4564C180.077 63.9636 177.011 65.2068 177.011 65.2422Z" fill="url(#paint5_linear_27_281)"/>
<path d="M174.333 65.2965C174.333 65.8055 174.699 66.2181 175.151 66.2181C175.602 66.2181 175.968 65.8055 175.968 65.2965C175.968 64.7874 175.602 64.3748 175.151 64.3748C174.699 64.3748 174.333 64.7874 174.333 65.2965Z" fill="url(#paint6_linear_27_281)"/>
<path d="M87.7087 65.2964H10.9678V65.6108H87.7389C87.7105 65.5081 87.7001 65.4015 87.7087 65.2964Z" fill="#D0A854"/>
<path d="M93.4005 65.7623C93.4005 66.2713 93.0347 66.6838 92.5834 66.6838C92.132 66.6838 91.7661 66.2713 91.7661 65.7623C91.7661 65.2533 92.132 64.8407 92.5834 64.8407C93.0347 64.8407 93.4005 65.2533 93.4005 65.7623Z" fill="#D0A854"/>
<path d="M4.23816 62.2366C4.21481 62.3336 3.79881 63.0197 3.43453 63.4033C2.56851 64.2369 0.455488 64.9993 0.451664 65.039C0.448243 65.075 2.56911 65.8309 3.43453 66.6639C3.79881 67.0483 4.21944 67.733 4.23816 67.8312C3.91634 66.1437 6.94087 65.0575 6.94087 65.0223C6.94087 64.9872 3.87488 63.7437 4.23816 62.2366Z" fill="#D0A854"/>
<path d="M9.61831 65.2964C9.61831 65.8053 9.25242 66.2179 8.8012 66.2179C8.34978 66.2179 7.98389 65.8053 7.98389 65.2964C7.98389 64.7874 8.34978 64.3748 8.8012 64.3748C9.25242 64.3748 9.61831 64.7874 9.61831 65.2964Z" fill="#D0A854"/>
<path d="M96.2426 65.2964H172.984V65.6108H96.2124C96.2408 65.5081 96.2512 65.4015 96.2426 65.2964Z" fill="#D0A854"/>
<path d="M179.713 62.4564C179.737 62.5534 180.153 63.2395 180.517 63.6231C181.383 64.4567 183.496 65.219 183.5 65.2587C183.503 65.2947 181.382 66.0506 180.517 66.8837C180.153 67.2681 179.732 67.9527 179.713 68.051C180.035 66.3634 177.011 65.2772 177.011 65.242C177.011 65.207 180.077 63.9634 179.713 62.4564Z" fill="#D0A854"/>
<path d="M174.333 65.2964C174.333 65.8053 174.699 66.2179 175.151 66.2179C175.602 66.2179 175.968 65.8053 175.968 65.2964C175.968 64.7874 175.602 64.3748 175.151 64.3748C174.699 64.3748 174.333 64.7874 174.333 65.2964Z" fill="#D0A854"/>
<path d="M112.819 40.2963C112.065 39.797 111.386 38.8306 110.783 37.3974L102.578 16.0671C102.534 16.0519 102.49 16.0345 102.445 16.0128C100.999 15.3032 99.9968 13.7754 99.198 12.4302C98.1685 10.6969 98.5547 8.6753 98.5807 6.7575C98.5839 6.51719 98.656 6.32177 98.7707 6.17062L96.7265 0.856575H89.3449V1.11117C91.1359 1.11117 92.0317 1.67671 92.0317 2.80798C92.0317 3.14731 91.956 3.53413 91.8055 3.96764L86.9429 16.6832C87.1669 16.8293 87.3726 16.9881 87.5613 17.1584L93.1912 2.49704L101.195 23.3411H89.9028C89.9354 23.587 89.9676 23.8323 90.0002 24.0765H101.478L106.569 37.3974C106.87 38.1328 107.021 38.7364 107.021 39.2075C107.021 39.9053 106.734 40.3861 106.159 40.65C105.831 40.8005 105.429 40.9289 104.957 41.0364C105.087 41.1116 105.187 41.2091 105.26 41.3206C106.736 41.1942 108.228 41.1308 109.736 41.1308C110.251 41.1308 110.767 41.1398 111.283 41.1557C111.846 40.8418 112.439 40.6186 113.048 40.437C112.97 40.3913 112.893 40.3455 112.819 40.2963Z" fill="#D0A854"/>
<path d="M107.137 41.733C105.308 41.733 103.625 41.5208 102.089 41.0966C100.552 40.6723 99.1897 40.1446 98.0019 39.5129C96.814 38.8813 95.8144 38.2449 95.0039 37.6035L96.1636 31.4382H96.418C96.418 32.2867 96.6911 33.2581 97.2381 34.3512C97.7849 35.445 98.5437 36.4962 99.5149 37.5047C100.486 38.5136 101.622 39.3529 102.923 40.0219C104.224 40.6913 105.628 41.0259 107.137 41.0259C109.098 41.0259 110.88 40.7528 112.482 40.2056C114.085 39.659 115.362 38.7823 116.315 37.5754C117.267 36.369 117.743 34.7853 117.743 32.824C117.743 32.2398 117.695 31.6078 117.602 30.929C117.3 29.1945 116.272 27.7473 114.519 26.5878C112.765 25.4282 110.455 24.217 107.59 22.9535C104.12 21.3696 101.348 19.72 99.2746 18.0041C96.4272 15.6663 95.0039 13.0644 95.0039 10.1981C95.0039 8.27483 95.5739 6.63939 96.715 5.29116C97.8555 3.94332 99.3453 2.91086 101.184 2.19418C103.022 1.4777 104.969 1.11945 107.024 1.11945C109.022 1.11945 110.969 1.51533 112.864 2.30729C114.759 3.09924 116.31 4.18363 117.517 5.55984L116.725 11.5558H116.47C116.47 10.7638 116.244 9.8211 115.791 8.72746C115.339 7.63402 114.698 6.56855 113.868 5.53146C113.038 4.49477 112.044 3.62252 110.884 2.91529C109.725 2.20827 108.438 1.85466 107.024 1.85466C105.101 1.85466 103.526 2.15171 102.301 2.74563C101.075 3.33955 100.17 4.14116 99.5856 5.14967C99.0009 6.15858 98.7089 7.27578 98.7089 8.50104C98.7089 9.04826 98.7654 9.6138 98.8786 10.1981C99.5759 13.5168 103.026 16.5997 109.23 19.4465L110.39 19.9839C111.709 20.5683 113.02 21.1955 114.321 21.8647C115.622 22.534 116.81 23.2928 117.884 24.1413C120.279 26.008 121.476 28.2705 121.476 30.929C121.476 32.7959 121.057 34.4079 120.218 35.7654C119.378 37.1229 118.266 38.2401 116.88 39.117C115.495 39.9935 113.953 40.649 112.256 41.0825C110.559 41.5164 108.853 41.733 107.137 41.733Z" fill="#0D2435"/>
<path d="M89.4849 23.3411L81.4808 2.49704L73.4769 23.3411H89.4849ZM103.881 41.4701C101.92 41.2439 99.9679 41.1308 98.0261 41.1308C96.0085 41.1308 94.0195 41.2439 92.0586 41.4701V41.2439C93.0768 41.1123 93.873 40.914 94.4486 40.65C95.0233 40.3861 95.3112 39.9053 95.3112 39.2075C95.3112 38.7364 95.16 38.1328 94.8585 37.3974L89.7677 24.0765H73.2225L68.1033 37.3974C67.8205 38.0954 67.6791 38.6702 67.6791 39.1226C67.6791 39.858 67.9946 40.3626 68.6266 40.6359C69.2581 40.9094 70.0926 41.1123 71.1296 41.2439V41.4701C69.4511 41.2439 68.0089 41.1308 66.8024 41.1308C65.6331 41.1308 64.1906 41.2439 62.4751 41.4701V41.2439C63.5685 41.1123 64.4973 40.7961 65.2609 40.2963C66.0247 39.797 66.7078 38.8306 67.3116 37.3974L80.0951 3.96764C80.2459 3.53413 80.3214 3.14751 80.3214 2.80819C80.3214 1.6767 79.4256 1.11117 77.6346 1.11117V0.856575H85.0161L99.0725 37.3974C99.6759 38.8306 100.355 39.797 101.109 40.2963C101.863 40.7961 102.787 41.1123 103.881 41.2439V41.4701Z" fill="#D0A854"/>
<defs>
<linearGradient id="paint0_linear_27_281" x1="10.9678" y1="65.4537" x2="87.7389" y2="65.4537" gradientUnits="userSpaceOnUse">
<stop stop-color="#76593A"/>
<stop offset="0.189381" stop-color="#C8A96F"/>
<stop offset="0.329799" stop-color="#F5EDB5"/>
<stop offset="0.533441" stop-color="#C8A96F"/>
<stop offset="0.706949" stop-color="#F5EDB5"/>
<stop offset="0.854704" stop-color="#C8A96F"/>
<stop offset="1" stop-color="#76593A"/>
</linearGradient>
<linearGradient id="paint1_linear_27_281" x1="91.7661" y1="65.7623" x2="93.4005" y2="65.7623" gradientUnits="userSpaceOnUse">
<stop stop-color="#76593A"/>
<stop offset="0.189381" stop-color="#C8A96F"/>
<stop offset="0.329799" stop-color="#F5EDB5"/>
<stop offset="0.533441" stop-color="#C8A96F"/>
<stop offset="0.706949" stop-color="#F5EDB5"/>
<stop offset="0.854704" stop-color="#C8A96F"/>
<stop offset="1" stop-color="#76593A"/>
</linearGradient>
<linearGradient id="paint2_linear_27_281" x1="0.45163" y1="65.034" x2="6.94067" y2="65.034" gradientUnits="userSpaceOnUse">
<stop stop-color="#76593A"/>
<stop offset="0.189381" stop-color="#C8A96F"/>
<stop offset="0.329799" stop-color="#F5EDB5"/>
<stop offset="0.533441" stop-color="#C8A96F"/>
<stop offset="0.706949" stop-color="#F5EDB5"/>
<stop offset="0.854704" stop-color="#C8A96F"/>
<stop offset="1" stop-color="#76593A"/>
</linearGradient>
<linearGradient id="paint3_linear_27_281" x1="7.98393" y1="65.2965" x2="9.61828" y2="65.2965" gradientUnits="userSpaceOnUse">
<stop stop-color="#76593A"/>
<stop offset="0.189381" stop-color="#C8A96F"/>
<stop offset="0.329799" stop-color="#F5EDB5"/>
<stop offset="0.533441" stop-color="#C8A96F"/>
<stop offset="0.706949" stop-color="#F5EDB5"/>
<stop offset="0.854704" stop-color="#C8A96F"/>
<stop offset="1" stop-color="#76593A"/>
</linearGradient>
<linearGradient id="paint4_linear_27_281" x1="96.2124" y1="65.4537" x2="172.984" y2="65.4537" gradientUnits="userSpaceOnUse">
<stop stop-color="#76593A"/>
<stop offset="0.189381" stop-color="#C8A96F"/>
<stop offset="0.329799" stop-color="#F5EDB5"/>
<stop offset="0.533441" stop-color="#C8A96F"/>
<stop offset="0.706949" stop-color="#F5EDB5"/>
<stop offset="0.854704" stop-color="#C8A96F"/>
<stop offset="1" stop-color="#76593A"/>
</linearGradient>
<linearGradient id="paint5_linear_27_281" x1="183.5" y1="65.2538" x2="177.011" y2="65.2538" gradientUnits="userSpaceOnUse">
<stop stop-color="#76593A"/>
<stop offset="0.189381" stop-color="#C8A96F"/>
<stop offset="0.329799" stop-color="#F5EDB5"/>
<stop offset="0.533441" stop-color="#C8A96F"/>
<stop offset="0.706949" stop-color="#F5EDB5"/>
<stop offset="0.854704" stop-color="#C8A96F"/>
<stop offset="1" stop-color="#76593A"/>
</linearGradient>
<linearGradient id="paint6_linear_27_281" x1="174.334" y1="65.2965" x2="175.968" y2="65.2965" gradientUnits="userSpaceOnUse">
<stop stop-color="#76593A"/>
<stop offset="0.189381" stop-color="#C8A96F"/>
<stop offset="0.329799" stop-color="#F5EDB5"/>
<stop offset="0.533441" stop-color="#C8A96F"/>
<stop offset="0.706949" stop-color="#F5EDB5"/>
<stop offset="0.854704" stop-color="#C8A96F"/>
<stop offset="1" stop-color="#76593A"/>
</linearGradient>
</defs>
</svg>
